<?xml version="1.0" encoding="utf-8"?>
<!-- Generator: Adobe Illustrator 25.0.0, SVG Export Plug-In . SVG Version: 6.00 Build 0)  -->
<svg version="1.1" id="Capa_1" xmlns="http://www.w3.org/2000/svg" xmlns:xlink="http://www.w3.org/1999/xlink" x="0px" y="0px"
	 viewBox="0 0 384.9 333.7" style="enable-background:new 0 0 384.9 333.7;" xml:space="preserve">
<style type="text/css">
	.st0{fill:#009640;}
</style>
<path class="st0" d="M48.6,106.3c0-15.4,7.6-22.9,23.1-22.9c30.9,0,89.9,0,120.7,0c31.1,0,88.2,0,119.3,0c6,0,11.6,1.1,16.1,5.5
	c4.1,4,6.1,9,6.1,14.7c0.1,12.4,0.2,149.3,0,161.6c-0.2,11.5-7.5,19.2-18.9,20.3c-0.9,0.1-1.9,0.1-2.8,0.1c-62.6,0-179.4,0-242,0
	c-13.7,0-21.7-11.4-21.7-25.2C48.6,252.6,48.6,120.3,48.6,106.3z"/>
<path class="st0" d="M0,15.5C0,5.2,5.1,0.1,15.4,0c3.1,0,6.1,0,9.2,0c9.3,0.1,14.6,5.4,14.6,14.7c0,42.7,0,85.4,0,128.1
	c0,15.6,0,31.2,0,46.8l0,0V237l0,0c0,10,0,20,0,30.1c0,16.8,10.6,27.5,27.4,27.5c83.8,0,167.7,0,251.5,0c3,0,6.2-0.3,9.1-1.1
	c11.8-3.2,18.5-13,18.5-26.6c0-70.5,0-141,0-211.4l0,0V13.8c0.3-8.4,5.5-13.6,14-13.8c3.6-0.1,7.2-0.1,10.8,0
	c8.9,0.1,14.3,5.5,14.3,14.6c0,33.7,0,67.3,0,101c0,53,0,105.9,0,158.9c0,28.7-18.3,51.7-46,57.8c-4.8,1.1-9.8,1.3-14.6,1.4
	c-43.9,0.1-87.8,0.1-131.7,0.1c-44.4,0-88.9,0.1-133.3,0c-28.6,0-51.7-18.4-57.8-46.1c-1-4.4-1.3-9-1.3-13.5C0,188,0,101.8,0,15.5z"
	/>
</svg>
